name processed_emg_signals
nRows=65
nColumns=7
 
endheader
time	LGLTMED	LRF	LADDLONG	LST	LTA	LGM
1.2550000000000001	0.3112052281945711	0.1474055732959161	0.4748076224980773	0.136396811033002	0.174718153638051	0.8225364563858827
1.256	0.3106042161184907	0.1479657672895044	0.4777782072756207	0.1357783711166913	0.1787297279688733	0.8147319056154985
1.2570000000000001	0.3100033123499269	0.1485390435901795	0.4807599330697304	0.1351480693962317	0.1828425175918088	0.8068241980300076
1.258	0.3094025525029695	0.1491250797372929	0.48375136967217	0.134506606327987	0.1870554990779933	0.798817875103821
1.2590000000000001	0.3088019975276866	0.1497235479982565	0.4867510758789474	0.1338546965766854	0.1913675326253166	0.7907174659654896
1.26	0.3082017336868328	0.150334114669422	0.4897575989533537	0.1331930679514484	0.1957773623827628	0.7825274857893116
1.2610000000000001	0.3076018724982605	0.1509564394086431	0.4927694741427553	0.1325224603290819	0.2002836169545155	0.7742524343906046
1.262	0.3070025506424762	0.1515901746013395	0.4957852242522975	0.1318436245678464	0.2048848100861212	0.7658967950136778
1.2630000000000001	0.3064039298356286	0.1522349647622273	0.4988033592778816	0.1311573214149112	0.2095793415348389	0.7574650332995265
1.264	0.3058061966669504	0.1528904459745151	0.5018223761013336	0.1304643204103501	0.2143654981261097	0.7489615964187647
1.2650000000000001	0.3052095624000831	0.1535562453689089	0.5048407582501261	0.1297653987903344	0.2192414549978341	0.740390912354002
1.266	0.3046142627365854	0.1542319806445047	0.5078569757250004	0.1290613403920282	0.2242052770336856	0.7317573893148435
1.2670000000000001	0.3040205575399108	0.1549172596332531	0.510869484898094	0.1283529345626408	0.2292549204862469	0.7230654152678676
1.268	0.3034287305168026	0.1556116799098007	0.513876728484843	0.1276409750746602	0.2343882347901976	0.7143193575626746
1.2690000000000001	0.3028390888536695	0.1563148284477231	0.5168771355915988	0.1269262590497063	0.2396029645653173	0.7055235626338933
1.27	0.3022519628049808	0.1570262813231078	0.5198691218406757	0.1262095858928348	0.2448967518084856	0.6966823557579692
1.2710000000000001	0.3016677052322973	0.1577456034656924	0.522851089573932	0.125491756239489	0.2502671382732527	0.6878000408428538
1.272	0.3010866910928544	0.1584723484578023	0.5258214281358358	0.1247735709170358	0.2557115680349266	0.6788809002287055
1.2730000000000001	0.3005093168780301	0.1592060583805255	0.5287785142363072	0.1240558299228812	0.2612273902382581	0.6699291944778102
1.274	0.2999360000023275	0.1599462637066394	0.5317207123942885	0.1233393314207777	0.2668118620240789	0.6609491621322993
1.2750000000000001	0.2993671781434601	0.1606924832393557	0.5346463754615903	0.1226248707569223	0.272462151630328	0.651945019418101
1.276	0.2988033085349059	0.161444224096037	0.5375538452282564	0.1219132394970228	0.2781753416620688	0.6429209598733467
1.2770000000000001	0.298244867211399	0.1622009817357936	0.5404414531098514	0.1212052244851793	0.2839484325242195	0.6338811538795438
1.278	0.297692348208018	0.1629622400301758	0.5433075209194452	0.1205016069253097	0.2897783460099273	0.6248297480753189
1.2790000000000001	0.2971462627128279	0.1637274713762027	0.5461503617258698	0.1198031614855985	0.2956619290366715	0.6157708646347771
1.28	0.2966071381728338	0.1644961368509107	0.5489682808017115	0.119110655426105	0.3015959575214514	0.6067086003957424
1.281	0.296075517352825	0.1652676864069787	0.5517595766632393	0.1184248477498588	0.3075771403855704	0.5976470258271096
1.282	0.2955519573474882	0.1660415591084179	0.5545225422058033	0.1177464883773034	0.313602123678707	0.5885901838289271
1.283	0.2950370285474917	0.1668171834056649	0.5572554659370693	0.1170763173440241	0.3196674948111012	0.579542088363315
1.284	0.2945313135613349	0.1675939774489687	0.5599566333106211	0.1164150640213963	0.3257697868817692	0.5705067229191367
1.285	0.2940354060950648	0.1683713494390045	0.5626243281608637	0.1157634463596631	0.3319054830899242	0.5614880388178219
1.286	0.2935499097924622	0.1691486980131809	0.5652568342389647	0.1151221701527475	0.3380710212161148	0.552489953371865
1.287	0.2930754370389755	0.169925412666224	0.5678524368497826	0.1144919283239346	0.3442627981592492	0.5435163479108095
1.288	0.2926126077327993	0.1707008742028767	0.5704094245875903	0.1138734002314864	0.3504771745154301	0.5345710656918479
1.289	0.2921620480274756	0.1714744552210327	0.5729260911689142	0.1132672509933721	0.3567104791844377	0.5256579097135265
1.29	0.2917243890499237	0.1722455206233742	0.5754007373588882	0.1126741308303408	0.3629590139898602	0.5167806404514478
1.291	0.2913002655984137	0.1730134281556544	0.5778316729868637	0.112094674427156	0.3692190582993752	0.5079429735346087
1.292	0.2908903148240132	0.1737775289701279	0.5802172190466214	0.1115295003119032	0.3754868736323228	0.4991485773803836
1.293	0.2904951748993441	0.1745371682126997	0.5825557098744452	0.1109792102537666	0.3817587082426417	0.4904010708052417
1.294	0.290115483678228	0.1752916856325167	0.5848454953987986	0.1104443886800566	0.3880308016662668	0.4817040206274998
1.295	0.2897518773500225	0.1760404162129883	0.5870849434540077	0.1099256021131848	0.3942993892235264	0.4730609392771384
1.296	0.2894049890925002	0.1767826908230189	0.5892724421512108	0.1094233986286745	0.4005607064685588	0.4644752824267735
1.297	0.2890754477260646	0.1775178368873881	0.5914064022980958	0.1089383073349424	0.40681099357952	0.4559504466564179
1.298	0.2887638763725837	0.1782451790750612	0.5934852598595395	0.1084708378755408	0.4130464996849943	0.4474897671634596
1.299	0.2884708911205074	0.1789640400039051	0.5955074784500703	0.1080214799543862	0.4192634871235657	0.4390965155277578
1.3	0.2881970996980305	0.179673740959989	0.597471551849888	0.1075907028844241	0.4254582356344996	0.4307738975406548
1.301	0.2879431001555922	0.1803736026295615	0.5993760065367479	0.1071789551601202	0.4316270464780875	0.4225250511053246
1.302	0.2877094795581351	0.1810629458420354	0.6012194042277836	0.106786664054243	0.4377662464845126	0.4143530442149667
1.303	0.2874968126877084	0.181741092322857	0.6030003444254869	0.1064142352394704	0.4438721920301107	0.4062608730141552
1.304	0.287305660756733	0.1824073654556894	0.6047174669627318	0.1060620524353158	0.4499412729398443	0.3982514599475852
1.305	0.2871365701321967	0.1830610910538121	0.606369454542352	0.1057304770805831	0.4559699163150706	0.3903276519994803
1.306	0.2869900710717588	0.1837015981406933	0.6079550352668023	0.1054198480314118	0.4619545902860903	0.3824922190260779
1.307	0.2868666764730722	0.1843282197395934	0.6094729851545853	0.1051304812846777	0.4678918076896164	0.3747478521833604
1.308	0.2867668806386672	0.1849402936719619	0.6109221306408367	0.1048626697261664	0.4737781296717219	0.3670971624517929
1.309	0.286691158059255	0.1855371633642406	0.612301351059372	0.1046166829029472	0.4796101692168493	0.359542679259619
1.31	0.28663996221891	0.1861181786629225	0.6136095811030866	0.1043927668188014	0.4853845946034228	0.3520868492060603
1.311	0.2866137244261734	0.1866826966580342	0.6148458132591743	0.1041911437517061	0.4910981327861679	0.3447320348852847
1.312	0.2866128526753206	0.1872300825153593	0.6160091002139086	0.1040120120919036	0.4967475727048919	0.3374805138116781
1.313	0.2866377305420768	0.1877597103177278	0.6170985572211078	0.1038555461992808	0.5023297685189224	0.3303344774466409
1.314	0.2866887161177652	0.188270963915699	0.6181133644266884	0.1037218962786112	0.5078416427655115	0.3232960303274554
1.315	0.2867661409853618	0.1887632377873108	0.6190527691419225	0.1036111882716684	0.5132801894396499	0.3163671892994488
1.316	0.2868703092403433	0.1892359379064369	0.61991608805637	0.1035235237648317	0.5186424769917637	0.3095498828529118
1.317	0.2870014965583581	0.189688482618943	0.6207027093811417	0.1034589799112379	0.5239256512389119	0.3028459505664146
1.318	0.2871599493114502	0.1901203035252037	0.6214120949116015	0.1034176093660236	0.5291269381844136	0.2962571426578845
1.319	0.2873458837338873	0.1905308463676246	0.6220437819977027	0.1033994402334443	0.5342436467403592	0.289785119643917
